<svg width="16" height="9" viewBox="0 0 16 9" fill="none" xmlns="http://www.w3.org/2000/svg">
<path d="M14.7042 2.15624L8.05423 8.47499C7.97506 8.54999 7.8893 8.60299 7.79694 8.63399C7.70458 8.66549 7.60562 8.68124 7.50007 8.68124C7.39451 8.68124 7.29555 8.66549 7.20319 8.63399C7.11083 8.60299 7.02506 8.54999 6.9459 8.47499L0.276106 2.15624C0.0913842 1.98124 -0.000976865 1.76249 -0.000976876 1.49999C-0.000976888 1.23749 0.0979814 1.0125 0.295898 0.824995C0.493815 0.637495 0.724718 0.543745 0.988606 0.543745C1.2525 0.543745 1.4834 0.637495 1.68131 0.824995L7.50007 6.33749L13.3188 0.824994C13.5035 0.649994 13.731 0.562494 14.0012 0.562494C14.272 0.562494 14.5063 0.656244 14.7042 0.843744C14.9021 1.03124 15.0011 1.24999 15.0011 1.49999C15.0011 1.74999 14.9021 1.96874 14.7042 2.15624Z" fill="white"/>
</svg>
