<svg width="30" height="30" viewBox="0 0 30 30" fill="none" xmlns="http://www.w3.org/2000/svg">
<path d="M30 13.4934V27.5657C29.9989 28.0049 29.8765 28.4359 29.6456 28.8133C29.4146 29.1906 29.0837 29.5006 28.6875 29.7107C28.3241 29.9058 27.9149 30.0054 27.5 29.9998H20C19.6685 29.9998 19.3505 29.8716 19.1161 29.6433C18.8817 29.4151 18.75 29.1055 18.75 28.7827V21.4804C18.75 21.1576 18.6183 20.848 18.3839 20.6198C18.1495 20.3915 17.8315 20.2633 17.5 20.2633H12.5C12.1685 20.2633 11.8506 20.3915 11.6161 20.6198C11.3817 20.848 11.25 21.1576 11.25 21.4804V28.7827C11.25 29.1055 11.1183 29.4151 10.8839 29.6433C10.6495 29.8716 10.3315 29.9998 10 29.9998H2.50003C2.14538 30.0011 1.79456 29.9284 1.47115 29.7867C1.14773 29.645 0.85923 29.4376 0.62503 29.1783C0.218618 28.7107 -0.00301723 28.1173 3.10292e-05 27.5048V13.4934C0.000141257 13.1557 0.0724351 12.8216 0.212315 12.5126C0.352195 12.2035 0.5566 11.9262 0.81253 11.6982L13.3125 0.638183C13.7734 0.227668 14.3754 0 15 0C15.6246 0 16.2267 0.227668 16.6875 0.638183L29.1875 11.6982C29.4434 11.9262 29.6478 12.2035 29.7877 12.5126C29.9276 12.8216 29.9999 13.1557 30 13.4934Z" fill="white"/>
</svg>
