<svg width="51" height="52" viewBox="0 0 51 52" fill="none" xmlns="http://www.w3.org/2000/svg">
<path d="M50.625 23.2285V47.4375C50.6231 48.1932 50.4181 48.9345 50.0313 49.5838C49.6445 50.233 49.0902 50.7663 48.4266 51.1277C47.8179 51.4633 47.1324 51.6347 46.4375 51.625H33.875C33.3197 51.625 32.7871 51.4044 32.3945 51.0117C32.0018 50.6191 31.7812 50.0865 31.7812 49.5312V36.9687C31.7812 36.4134 31.5607 35.8809 31.168 35.4882C30.7753 35.0956 30.2428 34.875 29.6875 34.875H21.3125C20.7572 34.875 20.2246 35.0956 19.832 35.4882C19.4393 35.8809 19.2187 36.4134 19.2187 36.9687V49.5312C19.2187 50.0865 18.9981 50.6191 18.6055 51.0117C18.2128 51.4044 17.6803 51.625 17.125 51.625H4.56249C3.96846 51.6272 3.38083 51.5023 2.83911 51.2585C2.2974 51.0147 1.81415 50.6578 1.42187 50.2117C0.741124 49.4074 0.369885 48.3865 0.374991 47.3328V23.2285C0.375176 22.6475 0.496268 22.0729 0.730567 21.5412C0.964866 21.0095 1.30725 20.5324 1.73593 20.1402L22.6734 1.11327C23.4454 0.407045 24.4537 0.0153809 25.5 0.0153809C26.5462 0.0153809 27.5546 0.407045 28.3266 1.11327L49.2641 20.1402C49.6927 20.5324 50.0351 21.0095 50.2694 21.5412C50.5037 22.0729 50.6248 22.6475 50.625 23.2285Z" fill="#3A3A3A"/>
</svg>
