<svg width="54" height="54" viewBox="0 0 54 54" fill="none" xmlns="http://www.w3.org/2000/svg">
<path d="M47.4167 0.75C48.9638 0.75 50.4475 1.36458 51.5415 2.45854C52.6354 3.55251 53.25 5.03624 53.25 6.58333V47.4167C53.25 48.9638 52.6354 50.4475 51.5415 51.5415C50.4475 52.6354 48.9638 53.25 47.4167 53.25H6.58333C5.03624 53.25 3.55251 52.6354 2.45854 51.5415C1.36458 50.4475 0.75 48.9638 0.75 47.4167V6.58333C0.75 5.03624 1.36458 3.55251 2.45854 2.45854C3.55251 1.36458 5.03624 0.75 6.58333 0.75H47.4167ZM45.9583 45.9583V30.5C45.9583 27.9782 44.9566 25.5598 43.1734 23.7766C41.3902 21.9934 38.9718 20.9917 36.45 20.9917C33.9708 20.9917 31.0833 22.5083 29.6833 24.7833V21.5458H21.5458V45.9583H29.6833V31.5792C29.6833 29.3333 31.4917 27.4958 33.7375 27.4958C34.8205 27.4958 35.8591 27.926 36.6249 28.6918C37.3906 29.4576 37.8208 30.4962 37.8208 31.5792V45.9583H45.9583ZM12.0667 16.9667C13.3662 16.9667 14.6126 16.4504 15.5315 15.5315C16.4504 14.6126 16.9667 13.3662 16.9667 12.0667C16.9667 9.35417 14.7792 7.1375 12.0667 7.1375C10.7594 7.1375 9.50562 7.65682 8.58122 8.58122C7.65682 9.50562 7.1375 10.7594 7.1375 12.0667C7.1375 14.7792 9.35417 16.9667 12.0667 16.9667ZM16.1208 45.9583V21.5458H8.04167V45.9583H16.1208Z" fill="white"/>
</svg>
