<svg width="29" height="23" viewBox="0 0 29 23" fill="none" xmlns="http://www.w3.org/2000/svg">
<path d="M0.496297 2.53775L13.0692 14.7422C13.4412 15.1035 13.938 15.318 14.4635 15.3441C14.989 15.3703 15.5058 15.2063 15.9139 14.8839L16.0754 14.7422L28.6398 2.546C28.6809 2.69725 28.7078 2.85125 28.722 3.00937L28.7333 3.25V19.75C28.7335 20.4438 28.4636 21.112 27.9775 21.6208C27.4915 22.1295 26.8253 22.4411 26.1125 22.4931L25.9 22.5H3.2333C2.51848 22.5002 1.82999 22.2382 1.30585 21.7664C0.781713 21.2947 0.460658 20.6481 0.407047 19.9562L0.399963 19.75V3.25C0.399963 3.085 0.41413 2.9255 0.442463 2.76875L0.496297 2.53775ZM25.9 0.5C26.0714 0.5 26.24 0.51375 26.4029 0.542625L26.6437 0.59625L14.5737 12.3112L2.49946 0.5935C2.6553 0.55225 2.8168 0.52475 2.98113 0.511L3.2333 0.5H25.9Z" fill="white"/>
</svg>
