<svg width="54" height="44" viewBox="0 0 54 44" fill="none" xmlns="http://www.w3.org/2000/svg">
<path d="M0.514647 4.61875L24.1813 28.2881C24.8814 28.9887 25.8166 29.4046 26.8058 29.4554C27.795 29.5061 28.7678 29.1881 29.536 28.5627L29.84 28.2881L53.4906 4.63475C53.568 4.92808 53.6186 5.22675 53.6453 5.53341L53.6666 6.00008V38.0001C53.6671 39.3456 53.1589 40.6416 52.244 41.6282C51.3291 42.6148 50.0751 43.2192 48.7333 43.3201L48.3333 43.3334H5.66665C4.32111 43.3338 3.02514 42.8257 2.03852 41.9108C1.0519 40.9958 0.447562 39.7418 0.346647 38.4001L0.333313 38.0001V6.00008C0.333313 5.68008 0.35998 5.37075 0.413313 5.06675L0.514647 4.61875V4.61875ZM48.3333 0.666748C48.656 0.666748 48.9733 0.693415 49.28 0.749415L49.7333 0.853415L27.0133 23.5734L4.28531 0.848081C4.57865 0.768081 4.88265 0.714748 5.19198 0.688081L5.66665 0.666748H48.3333Z" fill="#3A3A3A"/>
</svg>
