<svg width="30" height="30" viewBox="0 0 30 30" fill="none" xmlns="http://www.w3.org/2000/svg">
<path fill-rule="evenodd" clip-rule="evenodd" d="M3.53515 0.956613C3.86321 0.629014 4.25715 0.374883 4.69086 0.21106C5.12456 0.0472372 5.58812 -0.0225367 6.05083 0.00636257C6.51354 0.0352618 6.96482 0.162174 7.37477 0.378689C7.78472 0.595204 8.14398 0.896378 8.42874 1.26225L11.7943 5.5862C12.4111 6.37936 12.6286 7.41253 12.3849 8.38758L11.3593 12.494C11.3063 12.7067 11.3091 12.9295 11.3676 13.1408C11.4261 13.352 11.5382 13.5446 11.693 13.6997L16.2997 18.3068C16.4551 18.462 16.6479 18.5743 16.8595 18.6327C17.0711 18.6912 17.2943 18.6939 17.5072 18.6405L21.6115 17.6149C22.0926 17.4946 22.5948 17.4852 23.0801 17.5875C23.5653 17.6899 24.021 17.9012 24.4126 18.2055L28.7362 21.5694C30.2906 22.7789 30.4331 25.0758 29.0418 26.4653L27.1032 28.4041C25.7157 29.7917 23.642 30.4011 21.709 29.7204C16.7613 27.9795 12.2691 25.1468 8.56561 21.4326C4.8519 17.7293 2.01946 13.2374 0.278374 8.29007C-0.400354 6.35874 0.209001 4.28302 1.59646 2.89545L3.53515 0.956613Z" fill="white"/>
</svg>
