<svg width="63" height="45" viewBox="0 0 63 45" fill="none" xmlns="http://www.w3.org/2000/svg">
<path d="M25.25 31.875L41.4687 22.5L25.25 13.125V31.875ZM61.375 7.40625C61.7812 8.875 62.0625 10.8437 62.25 13.3437C62.4687 15.8437 62.5625 18 62.5625 19.875L62.75 22.5C62.75 29.3438 62.25 34.375 61.375 37.5938C60.5937 40.4062 58.7812 42.2188 55.9687 43C54.5 43.4062 51.8125 43.6875 47.6875 43.875C43.625 44.0938 39.9062 44.1875 36.4687 44.1875L31.5 44.375C18.4062 44.375 10.25 43.875 7.03125 43C4.21875 42.2188 2.40625 40.4062 1.625 37.5938C1.21875 36.125 0.9375 34.1562 0.75 31.6562C0.53125 29.1562 0.4375 27 0.4375 25.125L0.25 22.5C0.25 15.6562 0.75 10.625 1.625 7.40625C2.40625 4.59375 4.21875 2.78125 7.03125 2C8.5 1.59375 11.1875 1.3125 15.3125 1.125C19.375 0.90625 23.0937 0.8125 26.5312 0.8125L31.5 0.625C44.5937 0.625 52.75 1.125 55.9687 2C58.7812 2.78125 60.5937 4.59375 61.375 7.40625Z" fill="white"/>
</svg>
